# Blender v2.93.1 OBJ File: '喷火器.blend'
# www.blender.org
mtllib flameThrowerTube.mtl
o 枪管_立方体.001
v -1.021466 -0.247943 -9.494974
v -0.376023 -0.808142 -9.494974
v -0.376023 0.964976 -9.494974
v -1.021466 0.404778 -9.494974
v -0.376023 -0.915771 -30.611786
v -1.021466 -0.355573 -30.611786
v -1.021466 0.297149 -30.611786
v -0.376023 0.857347 -30.611786
v 0.376023 -0.808142 -9.494974
v 1.021466 -0.247943 -9.494974
v 1.021466 0.404778 -9.494974
v 0.376023 0.964976 -9.494974
v 1.021466 -0.355573 -30.611786
v 0.376023 -0.915771 -30.611786
v 0.376023 0.857347 -30.611786
v 1.021466 0.297149 -30.611786
vt 0.546015 1.000000
vt 0.453985 1.000000
vt 0.375000 0.921015
vt 0.546015 0.500000
vt 0.453985 0.750000
vt 0.453985 0.500000
vt 0.796015 0.500000
vt 0.703985 0.750000
vt 0.703985 0.500000
vt 0.453985 0.000000
vt 0.546015 0.250000
vt 0.453985 0.250000
vt 0.375000 0.421015
vt 0.203985 0.750000
vt 0.125000 0.500000
vt 0.203985 0.500000
vt 0.625000 0.250000
vt 0.546015 0.000000
vt 0.625000 0.000000
vt 0.296015 0.750000
vt 0.546015 0.750000
vt 0.296015 0.500000
vt 0.375000 0.828985
vt 0.625000 0.828985
vt 0.625000 0.921015
vt 0.796015 0.750000
vt 0.375000 0.328985
vt 0.625000 0.328985
vt 0.625000 0.421015
vt 0.125000 0.750000
vn 0.0000 0.0000 1.0000
vn 1.0000 0.0000 0.0000
vn 0.0000 1.0000 -0.0051
vn -1.0000 0.0000 0.0000
vn 0.0000 0.0000 -1.0000
vn -0.6555 -0.7552 0.0038
vn -0.6555 0.7552 -0.0038
vn 0.6555 -0.7552 0.0038
vn 0.6555 0.7552 -0.0038
vn 0.0000 -1.0000 0.0051
usemtl None
s off
f 4/1/1 1/2/1 2/3/1
f 16/4/2 10/5/2 13/6/2
f 8/7/3 12/8/3 15/9/3
f 1/10/4 7/11/4 6/12/4
f 16/4/5 13/6/5 14/13/5
f 2/14/6 6/15/6 5/16/6
f 8/17/7 4/18/7 3/19/7
f 9/20/8 13/6/8 10/5/8
f 15/9/9 11/21/9 16/4/9
f 14/22/10 2/14/10 5/16/10
f 2/3/1 9/23/1 12/24/1
f 9/23/1 10/5/1 12/24/1
f 10/5/1 11/21/1 12/24/1
f 12/24/1 3/25/1 2/3/1
f 3/25/1 4/1/1 2/3/1
f 16/4/2 11/21/2 10/5/2
f 8/7/3 3/26/3 12/8/3
f 1/10/4 4/18/4 7/11/4
f 14/13/5 5/27/5 8/28/5
f 5/27/5 6/12/5 8/28/5
f 6/12/5 7/11/5 8/28/5
f 8/28/5 15/29/5 14/13/5
f 15/29/5 16/4/5 14/13/5
f 2/14/6 1/30/6 6/15/6
f 8/17/7 7/11/7 4/18/7
f 9/20/8 14/22/8 13/6/8
f 15/9/9 12/8/9 11/21/9
f 14/22/10 9/20/10 2/14/10
